<svg xmlns="http://www.w3.org/2000/svg" width="384" height="512" viewBox="0 0 384 512"><path d="M82.582 72.315c0 17.457-12.355 29.655-30.03 29.655s-30.03-12.198-30.03-29.655c0-4.222 1.43-19.237 30.03-50.407 28.6 31.17 30.03 46.185 30.03 50.407z" fill="#4c6ef5"/><path opacity=".33" d="M53 0C24.925 25.325 5 55.225 5 75.125 5 106.25 24.75 128 53 128s48-21.75 48-52.875C101 55.15 80.95 25.225 53 0zm20.75 103.9C68.462 109.125 61.09 112 53 112s-15.467-2.875-20.75-8.1S24 91.323 24 83.262c0-4.075 1.275-8.795 3.793-14.028 3.75-7.782 10.25-16.75 19.31-26.64L53 36.163l5.897 6.432c9.07 9.892 15.568 18.858 19.31 26.64C80.725 74.468 82 79.188 82 83.263c0 8.06-2.928 15.39-8.25 20.638z" fill="#94a8f9"/><path fill="#fff" d="M74 90.763c0 12.207-8.64 20.737-21 20.737s-21-8.53-21-20.737c0-2.953 1-13.452 21-35.25 20 21.798 21 32.298 21 35.25z"/></svg>