<svg xmlns="http://www.w3.org/2000/svg" width="150" height="150"><defs><filter x="-65%" y="-65%" width="230%" height="225.7%" id="A"><feOffset dy="2" in="SourceAlpha" /><feGaussianBlur stdDeviation="2" /><feColorMatrix values="0 0 0 0 0 0 0 0 0 0 0 0 0 0 0 0 0 0 0.2 0" result="A" /><feMerge><feMergeNode in="A" /><feMergeNode in="SourceGraphic" /></feMerge></filter><linearGradient gradientUnits="userSpaceOnUse" x1="448" y1="20" x2="448" y2="148" id="B"><stop offset="0" stop-color="rgba(148, 168, 249, 1)" /><stop offset="1" stop-color="rgba(51, 90, 244, 1)" /></linearGradient></defs><g transform="matrix(1.085938 0 0 1.085938 -411.374646 -16.71876)" filter="url(#A)"><path d="M475.075 95.741c0 15.87-11.232 26.959-27.3 26.959s-27.3-11.089-27.3-26.959c0-3.838 1.3-17.488 27.3-45.825 26 28.337 27.3 41.987 27.3 45.825z" fill="#4c6ef5" transform="matrix(1.1 0 0 1.1 -45 -13)" filter="url(#A)" /><path d="M448 20c-28.075 25.325-48 55.225-48 75.125C400 126.25 419.75 148 448 148s48-21.75 48-52.875c0-19.975-20.05-49.9-48-75.125zm20.75 103.9c-5.288 5.225-12.66 8.1-20.75 8.1s-15.467-2.875-20.75-8.1-8.25-12.577-8.25-20.638c0-4.075 1.275-8.795 3.793-14.028 3.75-7.782 10.25-16.75 19.31-26.64L448 56.163l5.897 6.432c9.07 9.892 15.568 18.858 19.31 26.64 2.518 5.233 3.793 9.953 3.793 14.028 0 8.06-2.928 15.39-8.25 20.638z" filter="url(#A)" fill="url(#B)" fill-opacity=".3" /><path d="M469 110.763c0 12.207-8.64 20.737-21 20.737s-21-8.53-21-20.737c0-2.953 1-13.452 21-35.25 20 21.798 21 32.298 21 35.25z" fill="#fff" filter="url(#A)" /></g></svg>