<svg xmlns="http://www.w3.org/2000/svg" width="150" height="150"><defs><linearGradient id="b" x1="448" x2="448" y1="20" y2="148" gradientUnits="userSpaceOnUse"><stop offset="0" stop-color="rgba(148, 168, 249, 1)" /><stop offset="1" stop-color="rgba(51, 90, 244, 1)" /></linearGradient><filter id="a" width="230%" height="225.7%" x="-65%" y="-65%"><feOffset dy="2" in="SourceAlpha" /><feGaussianBlur stdDeviation="2" /><feColorMatrix result="A" values="0 0 0 0 0 0 0 0 0 0 0 0 0 0 0 0 0 0 0.2 0" /><feMerge><feMergeNode in="A" /><feMergeNode in="SourceGraphic" /></feMerge></filter></defs><g filter="url(#a)" transform="translate(-411 -17) scale(1.08594)"><path fill="#4c6ef5" d="M475 96c0 16-11 27-27 27s-28-11-28-27c0-4 2-18 28-46 26 28 27 42 27 46z" filter="url(#a)" transform="matrix(1.1 0 0 1.1 -45 -13)" /><path fill="url(#b)" fill-opacity=".3" d="M448 20c-28 25-48 55-48 75 0 31 20 53 48 53s48-22 48-53c0-20-20-50-48-75zm21 104c-6 5-13 8-21 8s-15-3-21-8-8-13-8-21c0-4 1-9 4-14 4-8 10-17 19-26l6-7 6 7c9 9 15 18 19 26a29 29 0 0 1-4 35z" filter="url(#a)" /><path fill="#fff" d="M469 111c0 12-9 21-21 21s-21-9-21-21c0-3 1-14 21-35 20 21 21 32 21 35z" filter="url(#a)" /></g></svg>