<svg xmlns="http://www.w3.org/2000/svg" viewBox="0 0 500 500" width="500" height="500"><defs><filter id="a" width="230%" height="225.7%" x="-65%" y="-65%"><feOffset dy="2" in="SourceAlpha"/><feGaussianBlur stdDeviation="2"/><feColorMatrix result="A" values="0 0 0 0 0 0 0 0 0 0 0 0 0 0 0 0 0 0 0.2 0"/><feMerge><feMergeNode in="A"/><feMergeNode in="SourceGraphic"/></feMerge></filter></defs><g filter="url(#a)" transform="matrix(1.08594, 0, 0, 1.08594, -262.934303, 103.36703)"><path fill="#4c6ef5" d="M 569.119 163.243 C 569.119 220.979 529.424 260.674 471.686 260.674 C 413.948 260.674 370.644 220.979 370.644 163.243 C 370.644 148.805 377.859 98.286 471.686 -2.754 C 565.51 98.286 569.119 148.805 569.119 163.243 Z" filter="url(#a)" style="stroke-width: 41.8573px;"/><path fill="#94a8f9" fill-opacity=".3" d="M 472.342 -74.928 C 380.486 7.087 314.874 105.504 314.874 171.115 C 314.874 272.813 380.486 344.985 472.342 344.985 C 564.198 344.985 629.808 272.813 629.808 171.115 C 629.808 105.504 564.198 7.087 472.342 -74.928 Z M 541.233 266.251 C 521.551 282.655 498.585 292.497 472.342 292.497 C 446.098 292.497 423.132 282.655 403.45 266.251 C 383.766 249.849 377.204 223.603 377.204 197.358 C 377.204 184.236 380.486 167.834 390.328 151.431 C 403.45 125.185 423.132 95.66 452.657 66.137 L 472.342 43.171 L 492.024 66.137 C 521.551 95.66 541.233 125.185 554.354 151.431 C 576.392 188.281 571.018 235.323 541.233 266.251 Z" filter="url(#a)" style="stroke-width: 46.0431px;"/><path fill="#fff" d="M 541.233 223.603 C 541.233 262.971 511.709 292.497 472.342 292.497 C 432.973 292.497 403.45 262.971 403.45 223.603 C 403.45 213.76 406.73 177.675 472.342 108.783 C 537.952 177.675 541.233 213.76 541.233 223.603 Z" filter="url(#a)" style="stroke-width: 46.0431px;"/></g></svg>