<svg xmlns="http://www.w3.org/2000/svg" width="540" height="155"><style>.B{filter:url(#A)}.C{fill:#fff}.D{fill-rule:evenodd}.E{stroke:#fff}.F{stroke-width:2}.G{fill-rule:nonzero}.H{fill-opacity:.33}</style><defs><filter id="A" width="230%" height="225.7%" x="-65%" y="-65%"><feOffset dy="2" in="SourceAlpha"/><feGaussianBlur stdDeviation="2"/><feColorMatrix result="C" values="0 0 0 0 0 0 0 0 0 0 0 0 0 0 0 0 0 0 0.2 0"/><feMerge><feMergeNode in="C"/><feMergeNode in="SourceGraphic"/></feMerge></filter></defs><g class="C D B"><g transform="translate(184 11)"><rect width="19" height="17" x="1" y="1" fill-opacity=".3" class="E F" rx="3.6"/><path d="M4.8 5h11.4c.4 0 .8.4.8 1s-.4 1-.8 1H4.8C4.4 7 4 6.6 4 6s.4-1 .8-1zm0 4h3.5c.4 0 .7.4.7.9v4.2c0 .5-.3.9-.8.9H4.8c-.5 0-.8-.4-.8-.9V9.9c0-.5.3-.9.8-.9zm6.7 0h4.7a1 1 0 1 1 0 2h-4.7a1 1 0 1 1 0-2z" class="G"/></g><path d="M195.5 24h4.7a1 1 0 1 1 0 2h-4.7a1 1 0 1 1 0-2z" class="G"/><g class="E H F"><path d="M60.9 10.7a1.3 1.3 0 0 1 2.2 0l2.4 4.9 5.4.8c1 .1 1.5 1.4.7 2.1l-3.9 3.8 1 5.4c.1 1-1 1.8-1.9 1.3L62 26.5 57.2 29a1.3 1.3 0 0 1-1.8-1.3l.9-5.4-4-3.8a1.3 1.3 0 0 1 .8-2.1l5.4-.8 2.4-4.9z"/></g></g><g fill="none" class="B D"><g class="C" transform="translate(95 11)"><path d="m3.9 3.2-1-.8-.1.2c-.4.8-1.3 1-2 .7s-1-1.2-.6-2 1.2-1 2-.7l2.6 1.8-1 .8zm10.7 0c.4-.4.7-.7 1-.8l.1.2c.4.8 1.3 1 2 .7s1-1.2.6-2-1.2-1-2-.7l-2.6 1.8.9.8z" class="G"/><path d="M9.2 1A8 8 0 0 1 15 3.3 8 8 0 0 1 17.2 9v6c0 .6-.2 1-.6 1.4a2 2 0 0 1-1.4.6h-12a2 2 0 0 1-1.4-.6 2 2 0 0 1-.6-1.4V9a8 8 0 0 1 2.4-5.7A8 8 0 0 1 9.2 1z" class="E F H"/><circle cx="5" cy="8.3" r="1.3"/><circle cx="13.5" cy="8.3" r="1.3"/></g><path stroke-linecap="round" stroke-width="1.5" d="m102.2 23 .5.5c.4.3 1 .5 1.5.5s1.2-.2 1.5-.5l.5-.5" class="E"/></g><g class="D B"><g class="C"><path d="M2 12h16v12H2z" style="fill-opacity:.341" transform="translate(140 45)"/><path d="M150 45a7 7 0 0 0-7 7v3h-3v16h20V55h-3v-3a7 7 0 0 0-7-7zm0 2a5 5 0 0 1 5 5v3h-10v-3a5 5 0 0 1 5-5zm-8 10h16v12h-16V57z" class="G"/><path fill-opacity=".3" d="M195.5 48c3.5 0 6.6 1.4 8.8 3.7a12.5 12.5 0 0 1 3.7 8.8c0 2.8-1 5.4-2.5 7.5h-20a12.4 12.4 0 0 1-2.5-7.5c0-3.5 1.4-6.6 3.7-8.8a12.5 12.5 0 0 1 8.8-3.7z" class="E F"/><path d="m200.7 54.3-5.5 3.7h-.2a2 2 0 1 0 2 2v-.2l3.7-5.5z" class="G"/><path d="M209 60v1h-4v-1h4zm-23 0v1h-4v-1h4zm.3-9.4 2.8 2.8-.7.7-2.8-2.8.7-.7zm18.4 0 .7.7-2.8 2.8-.7-.7 2.8-2.8zM196 47v4h-1v-4h1z"/><g><path d="M235.4 63a1.6 1.6 0 0 0 0 2.3l1.1 1.2a1.6 1.6 0 0 0 2.3 0l5-5.1-3.3-3.4zm17-12.4-1.2-1.1a1.6 1.6 0 0 0-2.2 0l-5.1 5 3.4 3.5 5-5.1a1.6 1.6 0 0 0 0-2.3" class="H"/><path d="m252.4 65.3-1.2 1.2a1.6 1.6 0 0 1-2.2 0l-13.6-13.6a1.6 1.6 0 0 1 0-2.3l1.1-1.1a1.6 1.6 0 0 1 2.3 0L252.4 63a1.6 1.6 0 0 1 0 2.2"/></g></g></g><g class="D B"><g fill="none"><g class="E F"><g class="C"><path d="M112.5 92.3a2 2 0 0 1 .8 2l-.7 4-9.9 10a15.3 15.3 0 0 1-5.6-5.7l9.9-10 4-.6a2 2 0 0 1 1.5.3z" class="H"/><path d="m107.9 103.1-.3 4.3a.7.7 0 0 1-.8.6l-1.9-2 3-2.9zm-5.7-5.7-3 3-1.7-1.5c-.2-.6-.2-.8 0-1a.7.7 0 0 1 .4-.2l4.3-.3z"/></g><path d="M99.5 105.8c.4.4.6.9.6 1.4 0 .6-.3 1.1-.7 1.5l-1.3.8-1.7.5h-.6l-.7.2.1-.7.2-.6c.3-1.5.7-2.5 1.2-3 .4-.4 1-.6 1.5-.7.5 0 1 .2 1.4.6z"/></g><path d="m106.6 95.9 2.8 2.8-2.1 2.1-2.8-2.8z" class="C"/></g><g class="C" transform="translate(184 89)"><path d="M3 5h16a2 2 0 0 1 2 2v10a2 2 0 0 1-2 2H3a2 2 0 0 1-2-2V7a2 2 0 0 1 2-2z" opacity=".5"/><path d="M8.3 0C7 0 5.9 1 5.9 2.3v2H3.7C1.7 4.3 0 5.9 0 7.9v8.5c0 2 1.7 3.6 3.7 3.6h15.6c2 0 3.7-1.6 3.7-3.6V7.9c0-2-1.7-3.6-3.7-3.6H17v-2C17 1 16 0 14.7 0H8.3zm0 2h6.4c.2 0 .4.1.4.3v2H7.8v-2c0-.2.2-.3.4-.3zM3.7 6.2h15.6c1 0 1.7.8 1.7 1.7V10H2V7.9c0-1 .8-1.7 1.7-1.7zM2 12h19v4.4c0 .9-.8 1.6-1.7 1.6H3.7c-1 0-1.7-.7-1.7-1.6V12z" class="G"/><rect width="4" height="4" x="5" y="9" rx="1"/><rect width="4" height="4" x="14" y="9" rx="1"/></g></g><g class="C D B"><path d="m30 131-9.2 9.2-4.8-4.9 1-1 3.8 3.9L29 130zM59.4 139l-4.9-4.8.7-.7 4.2 4.1 10.1-10.1.7.7z"/><path fill-opacity=".2" d="M115 134.7a3.5 3.5 0 0 0-2.3-3.3 3.5 3.5 0 0 0-4.7-4.6 3.5 3.5 0 0 0-6.6 0 3.5 3.5 0 0 0-4.6 4.6 3.5 3.5 0 0 0 0 6.6 3.5 3.5 0 0 0 4.6 4.7 3.5 3.5 0 0 0 6.6 0 3.5 3.5 0 0 0 4.7-4.7 3.5 3.5 0 0 0 2.3-3.3zm-5.8-1.7-5.3 5.2a.4.4 0 0 1-.6 0l-3-3a.4.4 0 0 1 0-.7l1-1a.4.4 0 0 1 .7 0l1.6 1.7 4-3.9a.4.4 0 0 1 .6 0l1 1a.4.4 0 0 1 0 .7z"/><path fill-opacity=".8" d="m109.2 133-5.3 5.2a.4.4 0 0 1-.6 0l-3-3a.4.4 0 0 1 0-.7l1-1a.4.4 0 0 1 .7 0l1.6 1.7 4-3.9a.4.4 0 0 1 .6 0l1 1a.4.4 0 0 1 0 .7z"/><g><path fill-opacity=".6" d="M142 144.5a2 2 0 0 1-2-2V131a2 2 0 0 1 2-1.9h1.8v8.3a3.2 3.2 0 0 0 3.2 3.2h8.4v2a2 2 0 0 1-2 1.9H142z"/><path d="M160.5 126v11.4a2 2 0 0 1-2 2H147a2 2 0 0 1-1.9-2V126a2 2 0 0 1 2-1.9h11.5a2 2 0 0 1 1.9 2z" class="H"/></g></g><g fill="#00d298" class="D"><path d="M196.8 126c0-.6-.5-1-1-1a1 1 0 0 0-.8.4c-5 7.4 2.1 7.8 2.1 11.4 0 1.4-1.1 2.6-2.6 2.6a2.6 2.6 0 0 1-2.6-2.7v-3.5a1 1 0 0 0-1.7-.6 8.2 8.2 0 0 0-2.2 5.5 7.8 7.8 0 0 0 7.8 7.8 7.8 7.8 0 0 0 7.9-7.8c0-7-6.9-8-6.9-12.1zm-1 17.1a5 5 0 0 1-3.5-1.5c.7.4 1.4.5 2.2.5a5.4 5.4 0 0 0 5.4-5.3c0-1.2-.3-2.3-1-3.3l1.1 1.4c.6 1 .9 2 .9 3.2a5 5 0 0 1-5 5z"/><path fill="rgba(64, 224, 208, 0.44)" d="m198.9 133.5 1.1 1.4c.6 1 .9 2 .9 3.2a5 5 0 0 1-8.6 3.5c.7.4 1.4.5 2.2.5a5.4 5.4 0 0 0 5.4-5.3c0-1.2-.3-2.3-1-3.3" class="H"/></g><path fill="#8f0" d="m241.5 135.5 7-7a1.7 1.7 0 0 1 2.5 0v.1a1.8 1.8 0 0 1 0 2.4l-8.6 8.7c-.5.4-1.2.4-1.7 0l-3.7-3.8a1.8 1.8 0 0 1 0-2.4 1.7 1.7 0 0 1 2.5 0l2 2z"/><g><g class="D"><path fill="#4285f4" d="M295.6 23.2c0-.8-.1-1.4-.3-2H286v3.7h5.5a5 5 0 0 1-2 3.2v2.5h3.1c2-1.8 3-4.3 3-7.4"/><path fill="#34a853" d="M289.5 28.1c-.9.6-2 1-3.5 1a6 6 0 0 1-5.7-4.1h-3.2v2.5A10 10 0 0 0 286 33c2.7 0 5-.9 6.6-2.4l-3.1-2.5"/><path fill="#fbbc05" d="M280 23c0-.7.1-1.4.3-2v-2.5h-3.2A10 10 0 0 0 276 23c0 1.6.4 3.1 1 4.5l3.3-2.5c-.2-.6-.3-1.3-.3-2"/><path fill="#ea4335" d="M286 16.9c1.9 0 3.1.8 3.9 1.5l2.8-2.8a10 10 0 0 0-15.6 3l3.2 2.4A6 6 0 0 1 286 17"/></g><path fill="#948bed" d="M285.4 46.4a12.4 12.4 0 1 0 0 24.8 12.4 12.4 0 0 0 0-24.8zm6 8.5-2 9.6c-.1.7-.5.8-1 .5l-3.2-2.3-1.5 1.5c-.1.1-.3.3-.6.3l.2-3.2 5.8-5.2c.2-.2 0-.3-.4-.1l-7.1 4.5-3-1c-.7-.2-.7-.6 0-1l12-4.6c.6-.2 1 .2.9 1z" class="B"/><g class="B C D"><path d="m285.2 101-4 3.9-6.7-6.7a1.7 1.7 0 0 1 0-2.4l1.6-1.6a1.7 1.7 0 0 1 2.3 0" opacity=".3"/><path d="m296 95.8-1.7-1.6a1.7 1.7 0 0 0-2.4 0l-10.7 10.7 2.8 2.7a1.7 1.7 0 0 0 2.4 0l9.5-9.5a1.7 1.7 0 0 0 0-2.3" opacity=".9"/></g></g><g class="D B"><g class="B"><g fill="#002970"><path d="M325.2 17.4h-4.7l-.4.1a.5.5 0 0 0-.1.4v11.6l.1.3.3.1h2.2a.5.5 0 0 0 .4-.1l.1-.3v-3.3h2a2.8 2.8 0 0 0 1.2-.2c.4-.1.7-.3 1-.6a2.8 2.8 0 0 0 .6-1 2.7 2.7 0 0 0 .2-1v-3a2.7 2.7 0 0 0-.2-1.2 2.8 2.8 0 0 0-1.6-1.6l-1.1-.2zm-.2 4v1.2l-.1.4a.5.5 0 0 1-.4.1h-1.4v-2.6h1.4a.5.5 0 0 1 .4.1l.1.4v.3zM333.6 17.4h-3a.5.5 0 0 0-.3.1l-.2.4v2a.5.5 0 0 0 .2.3l.4.1h2.8l.3.2a.5.5 0 0 1 .1.3v.3a.5.5 0 0 1 0 .3.5.5 0 0 1-.4.1h-1.4a3 3 0 0 0-3 1.8 3 3 0 0 0-.2 1.2v2.4c0 .4 0 .8.2 1.2l.6 1c.3.3.7.5 1 .6l1.2.2h4c.3 0 .6-.1.8-.3a1.2 1.2 0 0 0 .4-.9v-8c0-2-1-3.3-3.5-3.3zm.4 9v.3a.4.4 0 0 1 0 .1.5.5 0 0 1-.2.2.5.5 0 0 1-.3.1h-1l-.3-.1a.5.5 0 0 1-.1-.3v-1.9a.5.5 0 0 1 .1-.3l.4-.1h.9l.3.1a.5.5 0 0 1 .2.3v1.5zM346 17.4h-2.2a.5.5 0 0 0-.4.1l-.1.4v4.4a.5.5 0 0 1-.2.3.5.5 0 0 1-.3.2h-1a.5.5 0 0 1-.3-.2.5.5 0 0 1 0-.1l-.1-.2v-4.4c0-.1 0-.3-.2-.4a.5.5 0 0 0-.3 0h-2.2a.5.5 0 0 0-.3 0 .5.5 0 0 0-.1.2v5a3 3 0 0 0 .8 2.3 3 3 0 0 0 1 .7l1.3.2h1.5a.5.5 0 0 1 .3.1.5.5 0 0 1 0 .7.5.5 0 0 1-.3.2h-3.2a.5.5 0 0 0-.4.1l-.1.3v2.2l.1.3.4.1h3.5a3.1 3.1 0 0 0 1.3-.2 3 3 0 0 0 1.7-1.7c.2-.4.2-.8.2-1.2v-9a.5.5 0 0 0 0-.1.5.5 0 0 0-.5-.3"/></g><g fill="#00baf2"><path d="M353.7 17.4h-1.2v-2a.4.4 0 0 0 0-.1.4.4 0 0 0-.2-.2.4.4 0 0 0-.3-.1c-1.4.4-1.1 2.3-3.7 2.4h-.2a.5.5 0 0 0-.1 0 .5.5 0 0 0-.4.5V20a.5.5 0 0 0 .2.3l.3.2h1.3v9a.5.5 0 0 0 0 .2.5.5 0 0 0 .1.2.5.5 0 0 0 .4.1h2.1l.4-.1a.5.5 0 0 0 0-.4v-9h1.3a.5.5 0 0 0 .3-.2l.1-.1a.5.5 0 0 0 0-.2v-2.4a.5.5 0 0 0-.4-.2M368.3 19.4c-.2-.6-.6-1.1-1.1-1.5a3.3 3.3 0 0 0-2-.6 3.3 3.3 0 0 0-2.3 1 3.2 3.2 0 0 0-2.3-1 3.2 3.2 0 0 0-2.1.8v-.3l-.2-.3a.5.5 0 0 0-.3-.1h-2.2a.5.5 0 0 0-.3.1.5.5 0 0 0-.1.2v12.1a.5.5 0 0 0 .4.1h2.2a.5.5 0 0 0 .3-.1l.2-.3v-8.4a.8.8 0 0 1 .7-.7h.4a.8.8 0 0 1 .5.2.8.8 0 0 1 .2.2.8.8 0 0 1 0 .4v8.3a.5.5 0 0 0 .2.3l.3.1h2.5a.5.5 0 0 0 .2-.4v-8.3a.8.8 0 0 1 .3-.7.9.9 0 0 1 .4-.1h.4a.8.8 0 0 1 .6.2.8.8 0 0 1 .2.6v8.2l.1.4a.5.5 0 0 0 .4.1h2.1a.5.5 0 0 0 .4-.1.5.5 0 0 0 0-.2l.1-.2v-8.8c0-.4 0-.8-.2-1.2"/></g></g><g class="C B"><path d="M321.1 59.6v3.7c0 .3 0 .4-.3.4h-1.4c-.3 0-.4-.1-.4-.4v-11c0-.2.1-.3.3-.3h4.2c2 0 3.5 1.5 3.5 3.5 0 1-.1 2-.8 2.8-.7.9-1.6 1.3-2.7 1.3H321.1zm0-1.7h2c.5 0 1-.2 1.3-.6.5-.7.6-1.4.4-2.2-.2-.9-.9-1.4-1.8-1.4H321V58zm13.2 5.4c.1.3.3.4.6.4h1.2c.4 0 .5-.2.4-.5l-5-10.9c0-.2-.2-.3-.4-.3s-.3.1-.4.3a5165.5 5165.5 0 0 1-2.6 5.6v.2l-.2.3-2.2 4.8c-.2.3 0 .5.3.5h1.2c.4 0 .5 0 .7-.4V63l.1-.2.5-1.2.3-.2h4.5c.2 0 .3 0 .3.2l.5 1.2.2.5zm-4.9-3.6h3.3a1186.9 1186.9 0 0 1-1.6-3.6 863.6 863.6 0 0 0-1.7 3.6zm13.2-7.4a709.8 709.8 0 0 1-2.5 3.7l-.7-1a1138.6 1138.6 0 0 0-1.9-2.7l-.3-.3a26.3 26.3 0 0 0-1.7 0c-.2 0-.3.3-.2.5l2 3v.1l1.6 2.3a.6.6 0 0 1 .1.4v5c0 .3.1.4.4.4h1.3c.3 0 .4-.1.4-.4v-5a.8.8 0 0 1 .2-.5 2225.7 2225.7 0 0 0 3.6-5.2c0-.1.1-.2 0-.4 0-.2-.2-.2-.3-.2H343c-.2 0-.3 0-.4.3zm33.1 9.5c0 1-.9 1.9-2 1.9s-1.8-.9-1.8-1.9a1.9 1.9 0 0 1 1.9-1.9 1.9 1.9 0 0 1 1.3.6 1.9 1.9 0 0 1 .6 1.3zm-.2 0c0 1-.8 1.7-1.7 1.7a1.7 1.7 0 0 1-1.2-.5 1.6 1.6 0 0 1-.5-1.2c0-1 .8-1.6 1.7-1.6 1 0 1.7.8 1.7 1.6zm-1.4.2.2.2.3.5-.4-.1a1.2 1.2 0 0 0 0-.2l-.1-.1c-.2-.3-.4-.4-.7-.3v.7a3.4 3.4 0 0 0-.2 0v-1.6h.3a8.7 8.7 0 0 1 .6 0 .4.4 0 0 1 .4.4c0 .2-.1.4-.3.4zm-.5-.2a15.8 15.8 0 0 0-.2 0v-.5H374c.2 0 .3 0 .3.2s-.1.3-.3.3h-.4z"/><path fill="#03a9f4" d="m368.8 59 .1.3 2 3.8.1.2c.1.2 0 .4-.2.4H369l-.3-.3-2-4c0-.2-.1-.3-.3-.3h-1.3c-.2 0-.3.1-.3.3v3.8c0 .4 0 .5-.4.5h-1.2c-.4 0-.5-.1-.5-.4v-11c0-.2.1-.3.4-.3h4.6c1.7 0 3.1 1.1 3.4 2.8.3 1.7-.4 3.3-2 4.1a3.2 3.2 0 0 0-.3.1zm-4-1.5h2.7c.3 0 .6-.1.8-.3a2 2 0 0 0 .7-2.2c-.2-.8-.8-1.3-1.7-1.3H365v3.8zm-16.7-3.8V57h4c.3 0 .4 0 .4.4v1c0 .2-.1.3-.4.3h-4V62h4.7c.4 0 .5 0 .5.4v.9c0 .3-.1.4-.5.4h-6.4c-.3 0-.4 0-.4-.3v-11c0-.3 0-.4.5-.4h6.3c.4 0 .5 0 .5.5v.8c0 .3-.1.4-.5.4h-4.7zm6.3 4.1v-5.4c0-.3 0-.4.4-.4h6.4c.4 0 .5 0 .5.4v1c0 .2-.1.3-.4.3h-4.5c-.3 0-.3 0-.3.3v2.8c0 .1 0 .2.2.2h3.7c.4 0 .5 0 .5.5v.8c0 .3-.1.4-.4.4h-3.8c-.1 0-.2 0-.2.2v2.9c0 .1 0 .2.2.2h4.5c.4 0 .5 0 .5.4v1c0 .2-.1.3-.4.3h-6.4c-.4 0-.5 0-.5-.4v-5.5z"/></g><g class="B"><g fill="#27346a"><path d="M338.6 98.6c-.2 1.2-1.1 1.2-2 1.2h-.6l.4-2.2c0-.2.1-.3.3-.3h.2c.6 0 1.2 0 1.5.4.2.2.2.5.2 1zm-.4-3.1h-3.4c-.2 0-.4.1-.5.3l-1.3 8.7c0 .2 0 .3.3.3h1.6c.2 0 .4-.2.4-.4l.4-2.3c0-.2.2-.4.5-.4h1c2.2 0 3.5-1 3.9-3.2.1-1 0-1.7-.5-2.2-.5-.6-1.3-.8-2.4-.8zM346 101.7c-.2 1-.9 1.6-1.8 1.6-.5 0-.9-.2-1.1-.5-.2-.3-.3-.7-.3-1.1.2-1 1-1.6 1.8-1.6.5 0 .9.2 1.1.5.3.3.4.7.3 1.1zm2.2-3.1h-1.6c-.1 0-.2 0-.2.2l-.1.5-.1-.2c-.4-.5-1.2-.7-2-.7a3.7 3.7 0 0 0-3.5 3.3 3 3 0 0 0 .6 2.4c.5.6 1.2.9 2 .9 1.4 0 2.2-1 2.2-1v.5c0 .2 0 .3.2.3h1.5c.2 0 .4-.2.5-.4l.8-5.5c0-.2 0-.3-.3-.3zM356.8 98.6h-1.6c-.1 0-.3 0-.4.2l-2.2 3.3-1-3.2c0-.2-.2-.3-.4-.3h-1.6c-.2 0-.3.2-.3.3l1.8 5.3-1.7 2.4c0 .1 0 .4.3.4h1.6c.1 0 .3 0 .4-.2L357 99c.1-.2 0-.4-.3-.4M321.4 106.4l.4-2.9v-.1a.6.6 0 0 1 .3-.4l.4-.1h.3l1.7-.2c.5-.2 1-.4 1.3-.7.4-.3.8-.6 1-1a5.4 5.4 0 0 0 .8-3.4c-.1-.5-.3-.9-.6-1.2l-.6-.5v-1.5c0-.5-.4-.8-.7-1.1-.6-.8-1.8-1.2-3.5-1.2h-4.6a.7.7 0 0 0-.4.2c-.2 0-.2.2-.3.4l-1.9 12.2a.4.4 0 0 0 .4.4h2.9l-.2 1.3a.3.3 0 0 0 .3.4h2.4a.6.6 0 0 0 .6-.5v-.1"/><path fill="#1f264f" d="M325.7 95.6h-.6l-1.2-.2h-3.6a.6.6 0 0 0-.6.5l-.7 4.9v.1c0-.3.3-.5.6-.5h1.4c2.6 0 4.7-1.1 5.3-4.2v-.3a3.3 3.3 0 0 0-.6-.3"/></g><g fill="#2790c3"><path d="M326.4 95.9v.3c-.7 3.1-2.8 4.2-5.4 4.2h-1.4c-.3 0-.6.2-.7.5l-.8 5.7a.3.3 0 0 0 .3.4h2.4c.3 0 .5-.2.6-.5v-.1l.5-2.9v-.1c0-.3.3-.5.6-.5h.3c2.3 0 4.2-1 4.7-3.7.2-1.2.1-2.1-.5-2.8l-.6-.5M362.6 98.6c-.2 1.2-1.1 1.2-2 1.2h-.5l.4-2.2c0-.2 0-.3.2-.3h.3c.6 0 1.1 0 1.4.4.2.2.3.5.2 1zm-.4-3.1h-3.4c-.2 0-.4.1-.4.3l-1.4 8.7c0 .2.1.3.3.3h1.7a.3.3 0 0 0 .4-.3l.3-2.4c0-.2.3-.4.5-.4h1c2.3 0 3.6-1 3.9-3.2.2-1 0-1.7-.4-2.2-.5-.6-1.4-.8-2.5-.8zM370 101.7c-.1 1-.8 1.6-1.8 1.6-.4 0-.8-.2-1-.5-.3-.3-.4-.7-.3-1.1.1-1 .9-1.6 1.8-1.6.5 0 .8.2 1 .5.3.3.4.7.3 1.1zm2.3-3.1h-1.6c-.2 0-.3 0-.3.2v.5l-.2-.2c-.3-.5-1.1-.7-1.9-.7a3.7 3.7 0 0 0-3.6 3.3 3 3 0 0 0 .6 2.4c.5.6 1.2.9 2 .9 1.5 0 2.3-1 2.3-1l-.1.5c0 .2.1.3.3.3h1.4c.3 0 .5-.2.5-.4l.9-5.5c0-.2-.1-.3-.3-.3zM374.2 95.7l-1.4 8.8c0 .2.1.3.3.3h1.4c.2 0 .4-.2.4-.4l1.4-8.6c0-.2-.1-.3-.3-.3h-1.5c-.2 0-.3 0-.3.2"/></g></g></g></svg>