<svg xmlns="http://www.w3.org/2000/svg" width="540" height="155"><style>.B{filter:url(#A)}.C{fill:#fff}.D{fill-rule:evenodd}.E{stroke:#fff}.F{stroke-width:2}.G{fill-rule:nonzero}.H{fill-opacity:.33}.I{fill-opacity:.341}</style><defs><filter x="-65%" y="-65%" width="230%" height="225.7%" id="A"><feOffset dy="2" in="SourceAlpha"/><feGaussianBlur stdDeviation="2"/><feColorMatrix values="0 0 0 0 0 0 0 0 0 0 0 0 0 0 0 0 0 0 0.2 0" result="C"/><feMerge><feMergeNode in="C"/><feMergeNode in="SourceGraphic"/></feMerge></filter></defs><g class="C D B"><g transform="translate(12 10)"><path d="M2.456 0A1.128 1.128 0 013.51.951l.013 1.75A10.549 10.549 0 018.654.18c2.873-.533 5.69.15 7.921 1.683a10.547 10.547 0 014.41 6.791c.533 2.873-.15 5.69-1.683 7.921a10.547 10.547 0 01-6.792 4.41c-2.872.533-5.689-.15-7.92-1.683A10.547 10.547 0 01.18 12.51a13.575 13.575 0 01-.172-2.606 1.126 1.126 0 011.177-1.082A1.126 1.126 0 012.266 10a11.2 11.2 0 00.136 2.099 8.294 8.294 0 003.468 5.34 8.294 8.294 0 006.229 1.324 8.294 8.294 0 005.34-3.468 8.294 8.294 0 001.324-6.229 8.294 8.294 0 00-3.468-5.34 8.294 8.294 0 00-6.229-1.324A8.29 8.29 0 004.38 5.037l3.076.001c.43.058.674.201.845.407a1.126 1.126 0 010 1.447 1.13 1.13 0 01-.69.392l-5.24.014c-.396-.052-.612-.166-.777-.33a1.128 1.128 0 01-.317-.623l-.014-5.24c.06-.443.215-.696.436-.868L2.456 0zm8.617 8.192l.01 2.52h2.073c.62 0 1.123.503 1.123 1.124 0 .62-.502 1.124-1.123 1.126l-3.226.01c-.396-.051-.612-.165-.777-.33a1.128 1.128 0 01-.317-.622l-.01-3.828a1.12 1.12 0 011.12-1.123c.62 0 1.124.502 1.127 1.123z"/></g><g transform="translate(140 11)"><path d="M21 0v14.52H6.638L2.174 19v-4.48H0V0z" class="E F H"/><path d="M15.5 5.848c.212 0 .408.04.589.119a1.516 1.516 0 01.792.792c.079.18.119.377.119.589 0 .212-.04.408-.119.588a1.516 1.516 0 01-.792.793 1.46 1.46 0 01-.589.119 1.46 1.46 0 01-.589-.119 1.516 1.516 0 01-.792-.793A1.46 1.46 0 0114 7.348c0-.212.04-.408.119-.589a1.516 1.516 0 01.792-.792 1.46 1.46 0 01.589-.12zM5.5 5.848c.212 0 .408.04.589.119a1.516 1.516 0 01.792.792c.079.18.119.377.119.589 0 .212-.04.408-.119.588a1.516 1.516 0 01-.792.793 1.46 1.46 0 01-.589.119 1.46 1.46 0 01-.589-.119 1.516 1.516 0 01-.792-.793A1.46 1.46 0 014 7.348c0-.212.04-.408.119-.589a1.516 1.516 0 01.792-.792 1.46 1.46 0 01.589-.12zM10.5 5.848c.212 0 .408.04.589.119a1.516 1.516 0 01.792.792c.079.18.119.377.119.589 0 .212-.04.408-.119.588a1.516 1.516 0 01-.792.793 1.46 1.46 0 01-.589.119 1.46 1.46 0 01-.589-.119 1.516 1.516 0 01-.792-.793A1.46 1.46 0 019 7.348c0-.212.04-.408.119-.589a1.516 1.516 0 01.792-.792 1.46 1.46 0 01.589-.12z"/></g><g transform="translate(175)"><g transform="translate(9 11)"><rect x="1" y="1" width="19" height="17" rx="3.571" fill-opacity=".3" class="E F"/><path d="M4.848 5h11.304c.469 0 .848.448.848 1s-.38 1-.848 1H4.848C4.379 7 4 6.552 4 6s.38-1 .848-1zM4.75 9h3.5c.415 0 .75.403.75.9v4.2c0 .497-.335.9-.75.9h-3.5c-.415 0-.75-.403-.75-.9V9.9c0-.497.335-.9.75-.9zM11.5 9h4.667a1 1 0 110 2H11.5a1 1 0 110-2z" class="G"/></g><path d="M20.5 24h4.667a1 1 0 110 2H20.5a1 1 0 110-2z" class="G"/></g><g transform="translate(52 10)" class="E H F"><path d="M8.88.697a1.25 1.25 0 0 1 2.242 0l2.413 4.89 5.396.783c1.025.15 1.435 1.41.693 2.132l-3.905 3.806.922 5.374c.175 1.021-.897 1.8-1.814 1.318l-4.826-2.537L5.175 19a1.25 1.25 0 0 1-1.813-1.318l.921-5.374L.38 8.502a1.25 1.25 0 0 1 .692-2.132l5.395-.784L8.88.696z"/></g></g><g transform="translate(95 11)" fill="none" class="B D"><g class="C"><path d="M3.865 3.203c-.405-.421-.735-.705-.987-.852l-.128.262c-.363.744-1.238 1.065-1.954.716S-.206 2.093.158 1.349 1.395.282 2.11.631L4.781 2.4l-.916.803zm10.735 0c.405-.421.734-.705.987-.852l.127.262c.364.744 1.238 1.065 1.954.716s1.002-1.236.639-1.98S17.069.283 16.353.632L13.683 2.4l.917.803z" class="G"/><path d="M9.22 1c2.208 0 4.208.895 5.656 2.343A7.975 7.975 0 0117.22 9h0v6c0 .552-.224 1.052-.586 1.414A1.994 1.994 0 0115.22 17h0-12a1.994 1.994 0 01-1.414-.586A1.994 1.994 0 011.219 15h0V9c0-2.21.896-4.21 2.343-5.657A7.975 7.975 0 019.22 1z" class="E F H"/><circle cx="4.969" cy="8.25" r="1.25"/><circle cx="13.469" cy="8.25" r="1.25"/></g><path d="M7.22 12c.109.198.27.376.469.525.392.294.933.475 1.53.475s1.139-.181 1.53-.475c.2-.149.36-.327.47-.525" stroke-width="1.5" stroke-linecap="round" class="E"/></g><g transform="translate(230 10)" fill="none" class="B D"><g class="C"><path d="M3.5 8h21v11h-21z" class="E F H"/><circle cx="9" cy="13.5" r="1.5"/><circle cx="14" cy="13.5" r="1.5"/><circle cx="19" cy="13.5" r="1.5"/><g class="E F"><path d="M1 6h8v4H1z"/></g></g><rect x="2.5" y="1" width="5" height="7" rx="2.5" class="E F"/></g><g transform="translate(0 40)" class="D B"><g fill="none" transform="translate(2)"><path d="M20 10c-5.514 0-10 4.486-10 10s4.486 10 10 10 10-4.486 10-10-4.486-10-10-10z" opacity=".33" class="C"/><g transform="translate(10 10)" class="G"><path d="M10 1a8.972 8.972 0 0 1 6.36 2.64 8.972 8.972 0 0 1 0 12.72 8.972 8.972 0 0 1-12.72 0 8.972 8.972 0 0 1 0-12.72A8.972 8.972 0 0 1 10 1z" class="E F"/><path d="M10 1.5c.253 0 .502.016.75.038V9.25h2.546a9.892 9.892 0 0 1 2.294-5.648c.378.33.728.691 1.043 1.084a8.404 8.404 0 0 0-1.837 4.564h3.666l.038.75c0 .253-.016.502-.038.75h-3.667a8.436 8.436 0 0 0 1.836 4.567 8.513 8.513 0 0 1-1.047 1.086 9.93 9.93 0 0 1-2.29-5.653H10.75v7.712a8.608 8.608 0 0 1-.75.038c-.253 0-.502-.016-.75-.038V10.75H6.964a9.932 9.932 0 0 1-2.405 5.783 8.52 8.52 0 0 1-1.062-1.058 8.444 8.444 0 0 0 1.967-4.725H1.538A8.608 8.608 0 0 1 1.5 10c0-.253.016-.502.038-.75h3.926A8.42 8.42 0 0 0 3.5 4.522a8.52 8.52 0 0 1 1.06-1.057A9.904 9.904 0 0 1 6.965 9.25H9.25V1.538L10 1.5z" class="C"/></g></g><g transform="translate(50 10)"><g class="C"><path d="M14.888 1.22l.274.647h6.706a2 2 0 012 2v12a2 2 0 01-2 2H11.496l-4.025 1.71a2 2 0 01-2.623-1.06L.16 7.47a2 2 0 011.06-2.623L12.264.16a2 2 0 012.623 1.06z" class="I"/><path d="M14.888 1.22l.274.647h6.706a2 2 0 012 2v12a2 2 0 01-2 2H11.496l-4.025 1.71a2 2 0 01-2.623-1.06L.16 7.47a2 2 0 011.06-2.623L12.264.16a2 2 0 012.623 1.06zM7.867 4.197L2.001 6.689l4.688 11.046 1.577-.67a1.991 1.991 0 01-.398-1.197l-.001-11.67zm14-.33h-12v12h12v-12z" class="G"/></g><path d="M16.368 6.368v3h3v1h-3v3h-1v-3.001h-3v-1h3v-3h1z" fill="#6d7a90" class="E"/></g><g class="C"><g transform="translate(90 3)" fill-opacity=".34" class="E F"><path d="M22.925 6.161a.997.997 0 0 1 .99.864l.01.136v8.9L12.904 27.08a1.99 1.99 0 0 1-1.414.586c-.455 0-.91-.154-1.28-.463l-.135-.123-7.07-7.07a1.994 1.994 0 0 1-.586-1.415c0-.455.154-.91.462-1.28l.123-.134 11.021-11.02h8.9zm-3.657 2.657a1.99 1.99 0 0 0-2 2 1.99 1.99 0 0 0 .586 1.414c.39.39.902.586 1.414.586a1.99 1.99 0 0 0 1.414-.586c.39-.39.586-.902.586-1.414a1.99 1.99 0 0 0-.586-1.414 1.994 1.994 0 0 0-1.414-.586z"/></g><g transform="translate(140 5)"><path d="M2 12h16v12H2z" class="I"/><path d="M10 0C6.156 0 3 3.156 3 7v3H0v16h20V10h-3V7c0-3.844-3.156-7-7-7zm0 2c2.754 0 5 2.246 5 5v3H5V7c0-2.754 2.246-5 5-5zM2 12h16v12H2V12z" class="G"/></g><g transform="translate(182 7)"><path d="M13.5 1c3.452 0 6.577 1.4 8.839 3.661A12.46 12.46 0 0126 13.5c0 2.814-.93 5.412-2.5 7.5h0-20A12.444 12.444 0 011 13.5c0-3.452 1.4-6.577 3.661-8.839A12.46 12.46 0 0113.5 1z" fill-opacity=".34" class="E F"/><path d="M18.688 7.313l-5.47 3.718C13.146 11.023 13.075 11 13 11a2 2 0 1 0 2 2c0-.074-.023-.145-.031-.219l3.719-5.469z" class="G"/><path d="M27 13v1h-4v-1h4zM4 13v1H0v-1h4zm.308-9.4l2.828 2.83-.707.707L3.6 4.308l.707-.707zm18.384 0l.707.708-2.828 2.828-.707-.707L22.692 3.6zM14 0v4h-1V0h1z"/></g><g transform="matrix(.707107 .707107 -.707107 .707107 245 1)"><g transform="scale(.05)"><path d="M176 448a32 32 0 0 0 32 32h32a32 32 0 0 0 32-32V304h-96zm64-416h-32a32 32 0 0 0-32 32v144h96V64a32 32 0 0 0-32-32" class="H"/><path d="M448 240v32a32 32 0 0 1-32 32H32a32 32 0 0 1-32-32v-32a32 32 0 0 1 32-32h384a32 32 0 0 1 32 32"/></g></g></g></g><g transform="translate(0 80)" class="D B"><g class="C"><g transform="translate(13 10)"><circle opacity=".33" cx="8.5" cy="8.5" r="6.5"/><path d="M8.532 0a8.532 8.532 0 016.8 13.686l4.327 4.328a1.163 1.163 0 01-1.515 1.758l-.13-.113-4.328-4.327A8.532 8.532 0 118.532 0zm0 2.327a6.205 6.205 0 100 12.41 6.205 6.205 0 000-12.41z" class="G"/></g><g transform="translate(43)"><g transform="translate(8 7)"><g class="G"><path opacity=".3" d="M20.026 1.916l-.348.907-3.017 2.148 1.917.736-.51 1.33-3.839-1.474.355-.925 3.048-2.111-1.794-.689.512-1.333z"/><path d="M11.757 2.815l.376 1.4-2.147 5.343 3.349-.898.55 2.053-6.708 1.797-.383-1.428L9.02 5.754l-3.135.84-.552-2.057z"/></g><path d="M0 23v-6a1 1 0 011-1h20a1 1 0 011 1v6h0" class="E F H"/></g><path d="M26.879 25.379l.5.5-1 1 1 1-.5.5-1-1-1 1-.5-.5 1-1-1-1 .5-.5 1 1z"/></g></g><g fill="none"><g transform="matrix(.707107 .707107 -.707107 .707107 108 6)"><g class="E F"><g class="C"><path d="M7.653 1.26a1.994 1.994 0 011.985.822h0L12 5.453V19.46c-1.333.36-2.667.541-4 .541-1.333 0-2.667-.18-4-.541h0V5.453l2.362-3.371a1.994 1.994 0 011.291-.823z" class="H"/><path d="M12 12.186l2.828 3.212a.7.7 0 0 1-.068.99h0L12 16.317v-4.13zm-8 0v4.13l-2.302.218c-.59-.258-.678-.422-.695-.61a.7.7 0 0 1 .169-.526h0L4 12.186z"/></g><path d="M8 20c.547 0 1.04.237 1.397.612.375.394.603.939.603 1.538 0 .383-.164.868-.44 1.466l-.847 1.55h0l-.328.52-.36.543-.024.033-.388-.578-.326-.518C6.472 23.84 6 22.841 6 22.15c0-.6.228-1.144.603-1.538C6.96 20.237 7.453 20 8 20z"/></g><path d="M6 8h4v3H6z" class="C"/></g><g transform="translate(138 12)"><g class="E F"><path d="M18.258 3.121H23v6h-3.94m-10.605 0H0v-6h8.893"/><g class="C H"><path d="M13.879 1c1.535 0 3.07.586 4.242 1.757A5.981 5.981 0 0119.88 7a5.981 5.981 0 01-1.758 4.243A5.981 5.981 0 0113.88 13a5.981 5.981 0 01-4.243-1.757A5.981 5.981 0 017.879 7c0-1.536.585-3.071 1.757-4.243A5.981 5.981 0 0113.879 1z"/></g></g><path d="M17.414 11.95l1.414-1.414 4.95 4.95-1.414 1.413z" class="C"/></g></g><g class="C"><g transform="translate(184 9)"><path d="M3 5h16a2 2 0 012 2v10a2 2 0 01-2 2H3a2 2 0 01-2-2V7a2 2 0 012-2z" opacity=".5"/><path d="M8.287 0C6.995 0 5.925 1.043 5.925 2.303v1.96H3.713C1.673 4.263 0 5.895 0 7.882v8.5C0 18.368 1.674 20 3.712 20h15.576C21.326 20 23 18.368 23 16.382v-8.5c0-1.987-1.674-3.619-3.712-3.619h-2.213v-1.96c0-1.26-1.07-2.303-2.362-2.303H8.288zm0 1.974h6.425c.2 0 .338.135.338.329v1.96h-7.1v-1.96c0-.194.138-.33.337-.33zM3.712 6.237h15.576c.943 0 1.687.725 1.687 1.645V10H2.025V7.882c0-.92.744-1.645 1.688-1.645zM2.026 12h18.95v4.382c0 .92-.744 1.644-1.688 1.644H3.714c-.944 0-1.688-.725-1.688-1.644V12z" class="G"/><rect x="5" y="9" width="4" height="4" rx="1"/><rect x="14" y="9" width="4" height="4" rx="1"/></g><g transform="translate(233 5)"><path d="M2 8h18l2 18H0z" class="I"/><g class="G"><path d="M20 8l2 18h-6L14 8h6zm-1.79 2h-1.976l1.555 14h1.976L18.21 10z"/><path d="M16 8l2 18H0L2 8h14zm-1.79 2H3.789L2.234 24h13.531L14.21 10z"/><path d="M11.444 0c2.476 0 4.447 2.142 4.552 4.78L16 5v3h-2V5c0-1.62-1.087-2.902-2.403-2.995L11.444 2h-.888C9.223 2 8.087 3.223 8.005 4.815L8 5v9H6V5C6 2.337 7.904.123 10.35.005L10.556 0h.888z"/></g></g></g></g><g transform="translate(0 125)"><g class="C D B"><g transform="translate(15)"><path d="M15 5.986l-9.169 9.18L1 10.324l.986-.986 3.845 3.834L14.014 5z"/></g><g transform="translate(54.5 .5)"><path d="M4.852 13.562L0 8.703.703 8l4.149 4.14L15 2l.703.703z"/></g><g transform="translate(94.5 -.5)"><g transform="scale(.04)"><path fill-opacity=".23" d="M512 256a88 88 0 0 0-57.1-82.4A88 88 0 0 0 338.4 57.1a88 88 0 0 0-164.8 0A88 88 0 0 0 57.1 173.6a88 88 0 0 0 0 164.8 88 88 0 0 0 116.5 116.5 88 88 0 0 0 164.8 0 88 88 0 0 0 116.5-116.5A88 88 0 0 0 512 256zm-144.8-44.25l-131 130a11 11 0 0 1-15.55-.06l-75.72-76.33a11 11 0 0 1 .06-15.56L171 224a11 11 0 0 1 15.56.06l42.15 42.49 97.2-96.42a11 11 0 0 1 15.55.06l25.82 26a11 11 0 0 1-.08 15.56z"/><path fill-opacity=".83" d="M367.2 211.75l-131 130a11 11 0 0 1-15.55-.06l-75.72-76.33a11 11 0 0 1 .06-15.56L171 224a11 11 0 0 1 15.56.06l42.15 42.49 97.2-96.42a11 11 0 0 1 15.55.06l25.82 26a11 11 0 0 1-.06 15.56z"/></g></g><g transform="translate(140 -1)"><g transform="scale(.04)"><path fill-opacity=".63" d="M48 512a48 48 0 0 1-48-48V176a48 48 0 0 1 48-48h48v208a80.09 80.09 0 0 0 80 80h208v48a48 48 0 0 1-48 48H48z"/><path d="M512 48v288a48 48 0 0 1-48 48H176a48 48 0 0 1-48-48V48a48 48 0 0 1 48-48h288a48 48 0 0 1 48 48z" class="H"/></g></g></g><g fill="#00d298" class="D"><path d="M196.82.974c0-.604-.484-.974-.98-.974a.98.98 0 0 0-.821.442c-5.059 7.392 2.127 7.725 2.127 11.318v.033c-.018 1.43-1.183 2.58-2.613 2.58h-.036c-1.434-.02-2.578-1.218-2.578-2.654V8.228c0-.593-.483-.98-.986-.98-.267 0-.523.111-.706.306-1.093 1.15-2.228 3.117-2.228 5.512a7.85 7.85 0 0 0 7.84 7.84 7.85 7.85 0 0 0 7.84-7.84c0-6.954-6.86-7.881-6.86-12.092zm-.98 17.156c-1.346.001-2.636-.536-3.584-1.49l.107.049c.661.294 1.375.45 2.098.459h.073a5.39 5.39 0 0 0 5.389-5.318v-.07c0-1.136-.355-2.223-1.055-3.23l-.012-.018c.441.449.842.91 1.168 1.416.6.93.879 1.927.879 3.138a5.07 5.07 0 0 1-5.063 5.063z"/><path d="M198.856 8.512c.441.449.842.91 1.168 1.416.6.93.879 1.927.879 3.138a5.06 5.06 0 0 1-8.648 3.573l.107.049c.661.294 1.375.45 2.098.459h.073a5.39 5.39 0 0 0 5.389-5.318v-.07c0-1.136-.355-2.223-1.055-3.23l-.012-.018" fill="rgba(64, 224, 208, 0.44)" class="H"/></g><path d="M241.53 10.535l6.998-7.013a1.72 1.72 0 0 1 2.47 0l.072.077a1.78 1.78 0 0 1-.072 2.398l-8.636 8.654c-.465.466-1.2.466-1.665 0l-3.696-3.703-.072-.077a1.78 1.78 0 0 1 .072-2.398 1.72 1.72 0 0 1 2.47 0l2.058 2.063z" fill="#8f0"/></g><g transform="translate(276 13)"><g class="D"><path d="M19.6 10.23c0-.82-.1-1.42-.25-2.05H10v3.72h5.5c-.15.96-.74 2.31-2.04 3.22v2.45h3.16c1.89-1.73 2.98-4.3 2.98-7.34" fill="#4285f4"/><path d="M13.46 15.13c-.83.59-1.96 1-3.46 1-2.64 0-4.88-1.74-5.68-4.15H1.07v2.52C2.72 17.75 6.09 20 10 20c2.7 0 4.96-.89 6.62-2.42l-3.16-2.45" fill="#34a853"/><path d="M3.99 10c0-.69.12-1.35.32-1.97V5.51H1.07A9.973 9.973 0 000 10c0 1.61.39 3.14 1.07 4.49l3.24-2.52c-.2-.62-.32-1.28-.32-1.97" fill="#fbbc05"/><path d="M10 3.88c1.88 0 3.13.81 3.85 1.48l2.84-2.76C14.96.99 12.7 0 10 0 6.09 0 2.72 2.25 1.07 5.51l3.24 2.52C5.12 5.62 7.36 3.88 10 3.88" fill="#ea4335"/></g><g transform="translate(-3 33)" fill="#948bed" class="B"><path transform="scale(.05)" d="M248 8C111 8 0 119 0 256s111 248 248 248 248-111 248-248S385 8 248 8zm121.8 169.9l-40.7 191.8c-3 13.6-11.1 16.9-22.4 10.5l-62-45.7-29.9 28.8c-3.3 3.3-6.1 6.1-12.5 6.1l4.4-63.1 114.9-103.8c5-4.4-1.1-6.9-7.7-2.5l-142 89.4-61.2-19.1c-13.3-4.2-13.6-13.3 2.8-19.7l239.1-92.2c11.1-4 20.8 2.7 17.2 19.5z"/></g><g transform="matrix(.07 0 0 .07 -2 70)" class="B C D"><path opacity=".33" d="M160 256.14l-56.51 56.47-96.44-96.15a23.77 23.77 0 0 1-.18-33.61l.18-.18 22.59-22.51a23.94 23.94 0 0 1 33.85 0"/><path opacity=".9" d="M313 182.57L290.21 160a23.94 23.94 0 0 0-33.85 0L103.47 312.61 143 352l.06.06a24 24 0 0 0 33.93-.16L313 216.36l.18-.17a23.78 23.78 0 0 0-.18-33.62"/></g></g><g transform="translate(315)" class="D B"><g transform="matrix(.5 0 0 .5 5 15)" class="B"><g fill="#002970"><path d="M10.387 4.821H.938c-.249 0-.487.098-.663.271a.92.92 0 0 0-.275.654v4.178.087 18.913c-.007.239.08.471.243.648s.389.284.631.298h4.404a.96.96 0 0 0 .676-.276c.179-.177.28-.417.28-.667l.016-6.486h4.137a5.68 5.68 0 0 0 2.292-.366c.73-.278 1.393-.704 1.946-1.25a5.53 5.53 0 0 0 1.266-1.921 5.47 5.47 0 0 0 .369-2.263V10.62a5.48 5.48 0 0 0-.369-2.264c-.281-.721-.713-1.376-1.266-1.923S13.41 5.459 12.68 5.18s-1.511-.405-2.293-.369v.01zm-.38 7.808v2.632c0 .265-.107.519-.296.707a1.02 1.02 0 0 1-.716.294H6.251v-5.259h2.745a1.02 1.02 0 0 1 .716.294c.19.188.296.442.296.707v.626z"/><path d="M27.255 4.846h-5.997a.94.94 0 0 0-.664.246c-.18.165-.287.393-.297.636v1.659.034.022 2.287a.97.97 0 0 0 .314.677c.191.176.445.269.706.261h5.711c.227.029.436.135.593.3a.97.97 0 0 1 .266.602v.549a.94.94 0 0 1-.256.589.96.96 0 0 1-.579.292h-2.828c-.825-.06-1.654.048-2.434.319s-1.496.698-2.101 1.255-1.087 1.231-1.415 1.98-.496 1.558-.493 2.374v4.968c-.045.791.08 1.583.369 2.323s.733 1.41 1.304 1.968 1.256.988 2.009 1.264 1.556.391 2.358.337h7.841c.653.021 1.289-.214 1.766-.655a2.42 2.42 0 0 0 .78-1.696V11.251c0-3.925-2.051-6.405-6.951-6.405zm.689 17.81v.665c-.001.053-.007.105-.018.157a.74.74 0 0 1-.04.138 1 1 0 0 1-.378.471 1.02 1.02 0 0 1-.584.171h-1.8c-.261.009-.515-.085-.706-.261s-.303-.42-.312-.677v-.805-.029-2.142-.674a.97.97 0 0 1 .314-.674c.191-.175.444-.268.704-.261h1.801c.262-.008.516.086.707.262a.97.97 0 0 1 .313.678l-.002 2.981z"/><path d="M51.851 4.823h-4.317a.96.96 0 0 0-.675.276c-.179.177-.28.416-.28.666v8.824a.99.99 0 0 1-.301.696 1.02 1.02 0 0 1-.71.288h-1.813c-.133 0-.265-.026-.388-.076s-.235-.124-.329-.217a1 1 0 0 1-.219-.325c-.051-.121-.077-.251-.077-.383l-.019-8.814c0-.25-.101-.489-.281-.666a.96.96 0 0 0-.675-.276h-4.317c-.126 0-.25.024-.366.071s-.221.117-.31.204a.94.94 0 0 0-.208.306c-.048.114-.073.237-.073.361v9.669c-.035.835.106 1.668.414 2.447s.775 1.486 1.373 2.078a6.14 6.14 0 0 0 2.102 1.36c.788.305 1.632.446 2.478.413l2.88.018a1.01 1.01 0 0 1 .642.32c.167.181.26.417.261.662s-.089.481-.253.665a1.01 1.01 0 0 1-.638.328l-.071.012-6.323.024a.96.96 0 0 0-.676.276c-.179.177-.28.417-.28.667v4.26c0 .25.101.49.28.667s.422.276.676.276h7.075a6.21 6.21 0 0 0 2.48-.41c.789-.304 1.506-.767 2.105-1.358s1.068-1.298 1.376-2.077.45-1.612.416-2.447V5.765a.93.93 0 0 0-.073-.361c-.048-.114-.118-.218-.207-.306s-.194-.157-.31-.204-.24-.071-.366-.071"/></g><g fill="#00baf2"><path d="M67.404 4.823h-2.472V.867a.85.85 0 0 0-.065-.331.86.86 0 0 0-.189-.281C64.596.174 64.5.11 64.394.066S64.174 0 64.059 0a.79.79 0 0 0-.164.019c-2.743.735-2.191 4.489-7.197 4.81h-.487a.95.95 0 0 0-.208.024c-.211.047-.4.164-.535.331s-.209.374-.209.588v4.26a.94.94 0 0 0 .28.667c.179.177.422.277.676.277h2.609v18.091a.92.92 0 0 0 .071.357.93.93 0 0 0 .204.303c.088.087.192.156.306.203s.237.071.362.072h4.275c.251 0 .491-.099.668-.274a.93.93 0 0 0 .277-.66V10.976h2.422c.126 0 .25-.025.366-.072s.221-.117.31-.205.159-.192.207-.306a.93.93 0 0 0 .072-.361v-4.26c0-.25-.1-.489-.279-.666a.96.96 0 0 0-.675-.276"/><path d="M96.672 8.848c-.443-1.248-1.268-2.33-2.362-3.095a6.52 6.52 0 0 0-3.741-1.174h-.058c-.871-.001-1.733.172-2.534.509s-1.525.831-2.127 1.452c-.602-.621-1.325-1.114-2.126-1.452s-1.662-.51-2.533-.51h-.058a6.49 6.49 0 0 0-4.214 1.544v-.488c-.017-.237-.123-.459-.299-.621a.96.96 0 0 0-.648-.253h-4.317c-.126 0-.25.024-.366.072s-.221.117-.31.205a.94.94 0 0 0-.207.306c-.048.115-.073.237-.072.361v23.172c0 .25.101.49.28.667a.96.96 0 0 0 .676.276h4.317a.96.96 0 0 0 .627-.233c.174-.15.286-.357.317-.582V12.375v-.167c.031-.376.199-.727.472-.99s.635-.418 1.016-.438h.799a1.67 1.67 0 0 1 .911.348 1.57 1.57 0 0 1 .439.557 1.55 1.55 0 0 1 .147.691l.016 16.55a.94.94 0 0 0 .28.667c.179.177.422.277.676.277h4.317c.246.001.484-.091.663-.258a.94.94 0 0 0 .297-.639V12.358c-.006-.263.056-.522.179-.755s.304-.431.525-.577a1.72 1.72 0 0 1 .795-.264h.798a1.59 1.59 0 0 1 1.077.498 1.55 1.55 0 0 1 .42 1.098l.018 16.528c0 .25.101.49.28.667a.96.96 0 0 0 .676.276h4.317c.126 0 .25-.024.366-.071s.222-.117.311-.204a.94.94 0 0 0 .208-.306c.048-.115.073-.237.073-.361V11.11c.038-.766-.073-1.533-.328-2.258"/></g></g><g transform="matrix(.45 0 0 .45 4 52)" class="C B"><path d="M4.738 16.966l.001 2.373v.59l-.001 5.254c0 .535-.261.793-.791.802H.782c-.54 0-.782-.258-.782-.802V.772C0 .246.233.016.763.016l2.72-.008h.003l6.492.026c4.42.093 7.707 3.344 7.902 7.72.102 2.33-.344 4.496-1.87 6.338-1.546 1.87-3.603 2.773-6.013 2.865-1.328.055-4.03.023-4.954.012l-.305-.003zm.018-3.878l1.457-.002 2.825.002c1.2.01 2.178-.452 2.922-1.363 1.154-1.41 1.452-3.03.987-4.763-.53-1.972-2.038-3.077-4.086-3.077H4.766l-.01 9.203zm29.288 12.04c.242.59.624.921 1.312.866.429-.037 2.234-.009 2.7 0 .875 0 1.154-.415.791-1.207L27.808.67c-.204-.451-.484-.617-.968-.608-.465.01-.67.267-.847.645a11478.86 11478.86 0 0 1-5.688 12.3l-.217.47-.013.028-.334.723-4.899 10.597c-.344.736-.055 1.16.754 1.16h2.7c.81 0 1.07-.166 1.377-.903l.265-.626.147-.348 1.115-2.674c.13-.322.288-.46.67-.46h9.65.31c.343 0 .52.082.65.414l1.063 2.553.01.022.027.065.025.059.44 1.04zm-10.834-8.07h7.279a2637.5 2637.5 0 0 1-3.677-8.023 1919.198 1919.198 0 0 0-3.602 8.023zM52.555.615a1577.302 1577.302 0 0 1-5.668 8.282c-.058-.08-.737-1.069-1.642-2.385A2530.28 2530.28 0 0 0 41.163.587c-.149-.212-.428-.479-.66-.488A58.53 58.53 0 0 0 36.685.08c-.512.01-.772.498-.568.967.042.107 2.317 3.495 4.624 6.93l.009.013 3.474 5.18a1.42 1.42 0 0 1 .233.765l.009 11.138c0 .682.223.912.912.912h2.839c.782 0 .996-.212.996-.977l-.009-10.907a1.826 1.826 0 0 1 .335-1.105 4946.02 4946.02 0 0 0 7.95-11.626c.205-.295.372-.58.186-.94-.186-.368-.54-.368-.884-.368h-.503l-.406.003c-.752.004-1.506.007-2.256-.012-.484-.01-.8.157-1.07.562zM126 21.83c-.021 2.3-1.914 4.152-4.235 4.142s-4.197-1.878-4.198-4.179a4.21 4.21 0 0 1 4.217-4.154 4.217 4.217 0 0 1 2.989 1.224A4.147 4.147 0 0 1 126 21.83zm-.512.037c-.066 2.045-1.722 3.64-3.761 3.602a3.704 3.704 0 0 1-2.612-1.124 3.638 3.638 0 0 1-1.026-2.635c.037-1.999 1.731-3.592 3.797-3.555 2.001.036 3.658 1.74 3.602 3.712zm-3.016.295l.4.567.708 1.008c-.419.166-.652.037-.819-.285a2.682 2.682 0 0 0-.219-.343c-.063-.09-.127-.18-.181-.275-.326-.553-.791-.736-1.462-.57v1.51a7.49 7.49 0 0 0-.465.037v-3.565l.599-.005a19.25 19.25 0 0 1 1.364.014.87.87 0 0 1 .894.83c.057.47-.176.828-.679 1.021a.541.541 0 0 1-.14.056zm-1.148-.393a35.042 35.042 0 0 0-.416-.003v-1.133l.401-.003c.324-.004.639-.008.949.012.336.027.559.23.55.571-.01.314-.196.525-.522.544-.316.02-.632.016-.962.012z"/><path fill="#03a9f4" transform="translate(60)" d="M50.62 15.613l.354.683 4.47 8.35c.093.144.165.3.213.463.112.425-.14.795-.577.804l-3.91.009c-.391 0-.512-.296-.642-.573l-4.376-8.96c-.177-.37-.382-.527-.81-.518h-2.98c-.409-.01-.53.13-.53.536l.01 8.499c0 .886-.131 1.016-1.015 1.016h-2.7c-.717 0-.912-.185-.912-.896V.869c0-.638.214-.86.856-.86h10.194c3.798.02 6.898 2.486 7.569 6.116.717 3.862-.894 7.427-4.674 9.229a7.16 7.16 0 0 0-.54.259zm-8.704-3.501h5.809c.687.004 1.355-.22 1.9-.638 1.396-1.035 2.048-3.012 1.563-4.757-.512-1.857-1.87-2.892-3.798-2.892h-5.474v8.287zM4.701 3.825v7.27h8.695c.736 0 .95.213.95.924v2.032c0 .638-.223.86-.866.86H4.71v7.27h10.437c.8 0 .977.175.977.97v1.94c0 .692-.214.905-.912.905H.782c-.46-.008-.696-.183-.763-.566C.009 25.371 0 9.035 0 1.09 0 .168.158.02 1.07.02h14.002c.885 0 1.043.157 1.043 1.053V2.92c0 .72-.196.914-.94.914l-10.474-.01zm14 9.154V.925c0-.757.168-.924.922-.924h14.244c.726 0 .912.186.912.888v2.078c0 .656-.186.85-.857.85h-9.915c-.679 0-.679 0-.679.665l-.01 6.097c0 .406.122.517.532.517l8.052-.01c.978 0 1.108.13 1.108 1.072v1.94c0 .583-.214.804-.819.804h-8.379c-.344 0-.493.065-.493.453v6.374c0 .378.14.452.493.452l9.962-.008c.875 0 1.005.129 1.005 1.016v1.94c0 .655-.196.859-.848.859H19.688c-.829 0-.977-.148-.977-.961l-.01-12.046z"/></g><g transform="matrix(.25 0 0 .25 0 92)" class="B"><g fill="#27346a"><path d="M94.242 26.432c-.737 4.841-4.434 4.841-8.009 4.841h-2.035l1.427-9.038c.087-.546.558-.948 1.11-.948h.933c2.434 0 4.733 0 5.918 1.387.71.83.924 2.059.656 3.759h0zm-1.556-12.628H79.201c-.922 0-1.707.671-1.85 1.582l-5.453 34.578c-.107.682.42 1.299 1.11 1.299h6.439c.922 0 1.707-.671 1.851-1.581l1.472-9.328c.143-.911.928-1.582 1.85-1.582h4.267c8.882 0 14.008-4.299 15.348-12.818.603-3.726.024-6.654-1.721-8.704-1.918-2.253-5.317-3.445-9.828-3.445h0z"/><path d="M123.992 38.845c-.624 3.69-3.553 6.167-7.288 6.167-1.873 0-3.372-.602-4.336-1.743-.955-1.131-1.315-2.742-1.012-4.536.582-3.656 3.558-6.213 7.236-6.213 1.834 0 3.322.608 4.305 1.759.989 1.159 1.378 2.781 1.095 4.566h0zm8.999-12.568h-6.457c-.553 0-1.024.402-1.11.949l-.284 1.805-.452-.655c-1.398-2.03-4.515-2.708-7.627-2.708-7.134 0-13.228 5.406-14.414 12.988-.618 3.782.259 7.397 2.404 9.92 1.97 2.318 4.782 3.283 8.133 3.283 5.75 0 8.939-3.694 8.939-3.694l-.288 1.795c-.108.682.419 1.3 1.11 1.3h5.815c.922 0 1.707-.67 1.85-1.581l3.491-22.104c.108-.682-.419-1.299-1.11-1.299h0z"/><path d="M167.382 26.278h-6.49c-.621 0-1.201.308-1.55.821l-8.953 13.186-3.795-12.671c-.237-.793-.967-1.336-1.795-1.336h-6.38c-.77 0-1.313.758-1.064 1.487l7.147 20.977-6.722 9.485c-.528.744.005 1.774.917 1.774h6.484c.615 0 1.19-.301 1.54-.807l21.584-31.151c.516-.745-.017-1.765-.924-1.765"/><path d="M25.547 57.548l1.813-11.495.117-.637a2.36 2.36 0 0 1 .798-1.425c.427-.365.972-.566 1.534-.566h1.439c2.399 0 4.604-.256 6.552-.762 2.079-.539 3.928-1.378 5.495-2.493 1.662-1.182 3.058-2.71 4.149-4.54 1.152-1.931 1.997-4.256 2.513-6.909.456-2.343.542-4.441.255-6.235-.304-1.896-1.034-3.513-2.17-4.809-.689-.785-1.571-1.465-2.621-2.021l-.025-.013-.001-.03c.367-2.339.353-4.29-.042-5.969s-1.199-3.198-2.455-4.629C40.296 2.048 35.562.544 28.828.544H10.334a2.6 2.6 0 0 0-1.688.623c-.47.402-.782.96-.879 1.571L.066 51.57c-.07.445.058.898.351 1.24s.72.541 1.171.541h11.473l-.01.055-.788 4.996a1.34 1.34 0 0 0 1.325 1.552h9.623a2.27 2.27 0 0 0 2.241-1.915l.095-.49"/><path d="M42.891 14.598l-1.151-.295-1.221-.233c-1.464-.236-3.065-.348-4.783-.348H21.24c-.356 0-.695.081-.999.227-.668.321-1.165.954-1.287 1.728l-3.081 19.536-.089.57c.203-1.286 1.302-2.234 2.604-2.234h5.427c10.657 0 19.001-4.329 21.439-16.851.073-.37.134-.73.189-1.083-.616-.326-1.285-.607-2.004-.846-.18-.06-.362-.117-.548-.171" fill="#1f264f"/></g><g fill="#2790c3"><path d="M45.443 15.615h0l-.189 1.083c-2.438 12.522-10.782 16.851-21.439 16.851h-5.427c-1.302 0-2.401.948-2.604 2.234l-3.567 22.613A1.39 1.39 0 0 0 13.588 60h9.624c1.139 0 2.108-.828 2.286-1.954l.095-.489 1.813-11.496.117-.635c.178-1.125 1.147-1.954 2.286-1.954h1.439c9.323 0 16.623-3.788 18.756-14.742.891-4.577.43-8.398-1.927-11.084-.713-.812-1.6-1.484-2.635-2.032"/><path d="M190.422 26.432c-.737 4.841-4.434 4.841-8.01 4.841h-2.035l1.427-9.038c.086-.546.557-.948 1.11-.948h.933c2.433 0 4.733 0 5.918 1.387.709.83.924 2.059.656 3.759h0zm-1.556-12.628H175.38c-.922 0-1.707.671-1.85 1.582l-5.453 34.578c-.108.682.419 1.299 1.11 1.299h6.919a1.31 1.31 0 0 0 1.295-1.107l1.547-9.802c.144-.911.928-1.582 1.85-1.582h4.267c8.882 0 14.008-4.299 15.348-12.818.603-3.726.024-6.654-1.721-8.704-1.918-2.253-5.316-3.445-9.828-3.445h0z"/><path d="M220.172 38.845c-.624 3.69-3.552 6.167-7.288 6.167-1.873 0-3.372-.602-4.336-1.743-.955-1.131-1.315-2.742-1.012-4.536.581-3.656 3.557-6.213 7.236-6.213 1.833 0 3.322.608 4.305 1.759.989 1.159 1.378 2.781 1.095 4.566h0zm8.999-12.568h-6.457c-.553 0-1.024.402-1.11.949l-.284 1.805-.451-.655c-1.399-2.03-4.515-2.708-7.627-2.708-7.133 0-13.228 5.406-14.414 12.988-.617 3.782.259 7.397 2.404 9.92 1.971 2.318 4.782 3.283 8.133 3.283 5.75 0 8.939-3.694 8.939-3.694l-.288 1.795c-.108.682.419 1.3 1.11 1.3h5.815c.922 0 1.707-.67 1.851-1.581l3.49-22.104c.108-.682-.419-1.299-1.11-1.299h0z"/><path d="M236.781 14.753l-5.535 35.21c-.107.682.42 1.299 1.11 1.299h5.567c.922 0 1.707-.671 1.85-1.581l5.457-34.578c.108-.682-.419-1.299-1.11-1.299h-6.229c-.553 0-1.024.403-1.11.95"/></g></g></g><g class="B"><path class="B" d="M475.075 95.741c0 15.87-11.232 26.959-27.3 26.959s-27.3-11.089-27.3-26.959c0-3.838 1.3-17.488 27.3-45.825 26 28.337 27.3 41.987 27.3 45.825z" fill="#4c6ef5" transform="matrix(1.1 0 0 1.1 -45 -13)"/><path class="B H" d="M448 20c-28.075 25.325-48 55.225-48 75.125C400 126.25 419.75 148 448 148s48-21.75 48-52.875c0-19.975-20.05-49.9-48-75.125zm20.75 103.9c-5.288 5.225-12.66 8.1-20.75 8.1s-15.467-2.875-20.75-8.1-8.25-12.577-8.25-20.638c0-4.075 1.275-8.795 3.793-14.028 3.75-7.782 10.25-16.75 19.31-26.64L448 56.163l5.897 6.432c9.07 9.892 15.568 18.858 19.31 26.64 2.518 5.233 3.793 9.953 3.793 14.028 0 8.06-2.928 15.39-8.25 20.638z" fill="#94a8f9"/><path class="B C" d="M469 110.763c0 12.207-8.64 20.737-21 20.737s-21-8.53-21-20.737c0-2.953 1-13.452 21-35.25 20 21.798 21 32.298 21 35.25z"/></g></svg>